<?xml version="1.0" encoding="UTF-8"?>
<svg xmlns="http://www.w3.org/2000/svg" width="1400" height="900" viewBox="0 0 1400 900">
  <rect width="1400" height="900" fill="#f8fafc"/>
  <text x="700" y="55" text-anchor="middle" font-family="Arial" font-size="34" font-weight="700" fill="#0f172a">System Process Flow Diagram</text>

  <defs>
    <marker id="arrow" markerWidth="12" markerHeight="12" refX="10" refY="6" orient="auto">
      <path d="M0,0 L12,6 L0,12 z" fill="#0f172a"/>
    </marker>
  </defs>

  <rect x="120" y="120" width="230" height="78" rx="12" fill="#0ea5e9" stroke="#075985" stroke-width="2"/>
  <text x="235" y="167" text-anchor="middle" font-family="Arial" font-size="20" font-weight="700" fill="#ffffff">User Registration</text>

  <rect x="420" y="120" width="230" height="78" rx="12" fill="#14b8a6" stroke="#0f766e" stroke-width="2"/>
  <text x="535" y="167" text-anchor="middle" font-family="Arial" font-size="20" font-weight="700" fill="#ffffff">Profile Setup</text>

  <rect x="720" y="120" width="250" height="78" rx="12" fill="#14b8a6" stroke="#0f766e" stroke-width="2"/>
  <text x="845" y="167" text-anchor="middle" font-family="Arial" font-size="20" font-weight="700" fill="#ffffff">Application Submission</text>

  <polygon points="1080,119 1270,119 1330,159 1270,199 1080,199 1020,159" fill="#f59e0b" stroke="#92400e" stroke-width="2"/>
  <text x="1175" y="155" text-anchor="middle" font-family="Arial" font-size="18" font-weight="700" fill="#111827">Complete?</text>
  <text x="1175" y="176" text-anchor="middle" font-family="Arial" font-size="14" fill="#111827">Docs + Data</text>

  <rect x="760" y="280" width="220" height="78" rx="12" fill="#22c55e" stroke="#166534" stroke-width="2"/>
  <text x="870" y="327" text-anchor="middle" font-family="Arial" font-size="20" font-weight="700" fill="#ffffff">Submit to Review</text>

  <rect x="1040" y="280" width="240" height="78" rx="12" fill="#ef4444" stroke="#991b1b" stroke-width="2"/>
  <text x="1160" y="317" text-anchor="middle" font-family="Arial" font-size="18" font-weight="700" fill="#ffffff">Return to Student</text>
  <text x="1160" y="337" text-anchor="middle" font-family="Arial" font-size="16" fill="#ffffff">for Correction</text>

  <rect x="760" y="430" width="220" height="78" rx="12" fill="#0ea5e9" stroke="#075985" stroke-width="2"/>
  <text x="870" y="477" text-anchor="middle" font-family="Arial" font-size="19" font-weight="700" fill="#ffffff">Reviewer Assessment</text>

  <polygon points="760,560 980,560 1040,600 980,640 760,640 700,600" fill="#f59e0b" stroke="#92400e" stroke-width="2"/>
  <text x="870" y="597" text-anchor="middle" font-family="Arial" font-size="18" font-weight="700" fill="#111827">Recommended?</text>
  <text x="870" y="618" text-anchor="middle" font-family="Arial" font-size="14" fill="#111827">Forward to Admin</text>

  <rect x="470" y="700" width="220" height="78" rx="12" fill="#ef4444" stroke="#991b1b" stroke-width="2"/>
  <text x="580" y="747" text-anchor="middle" font-family="Arial" font-size="19" font-weight="700" fill="#ffffff">Rejected</text>

  <rect x="760" y="700" width="220" height="78" rx="12" fill="#22c55e" stroke="#166534" stroke-width="2"/>
  <text x="870" y="747" text-anchor="middle" font-family="Arial" font-size="19" font-weight="700" fill="#ffffff">Approved</text>

  <rect x="1050" y="700" width="220" height="78" rx="12" fill="#6366f1" stroke="#312e81" stroke-width="2"/>
  <text x="1160" y="737" text-anchor="middle" font-family="Arial" font-size="17" font-weight="700" fill="#ffffff">Email Notification</text>
  <text x="1160" y="757" text-anchor="middle" font-family="Arial" font-size="15" fill="#ffffff">to Applicant</text>

  <line x1="350" y1="159" x2="420" y2="159" stroke="#0f172a" stroke-width="3" marker-end="url(#arrow)"/>
  <line x1="650" y1="159" x2="720" y2="159" stroke="#0f172a" stroke-width="3" marker-end="url(#arrow)"/>
  <line x1="970" y1="159" x2="1020" y2="159" stroke="#0f172a" stroke-width="3" marker-end="url(#arrow)"/>

  <line x1="1110" y1="199" x2="930" y2="280" stroke="#0f172a" stroke-width="3" marker-end="url(#arrow)"/>
  <text x="1020" y="236" font-family="Arial" font-size="16" font-weight="700" fill="#166534">YES</text>

  <line x1="1205" y1="199" x2="1175" y2="280" stroke="#0f172a" stroke-width="3" marker-end="url(#arrow)"/>
  <text x="1215" y="243" font-family="Arial" font-size="16" font-weight="700" fill="#991b1b">NO</text>

  <line x1="1040" y1="319" x2="535" y2="319" stroke="#0f172a" stroke-width="3" marker-end="url(#arrow)"/>
  <line x1="535" y1="319" x2="535" y2="198" stroke="#0f172a" stroke-width="3" marker-end="url(#arrow)"/>

  <line x1="870" y1="358" x2="870" y2="430" stroke="#0f172a" stroke-width="3" marker-end="url(#arrow)"/>
  <line x1="870" y1="508" x2="870" y2="560" stroke="#0f172a" stroke-width="3" marker-end="url(#arrow)"/>

  <line x1="780" y1="640" x2="620" y2="700" stroke="#0f172a" stroke-width="3" marker-end="url(#arrow)"/>
  <text x="715" y="670" font-family="Arial" font-size="15" font-weight="700" fill="#991b1b">NO</text>

  <line x1="870" y1="640" x2="870" y2="700" stroke="#0f172a" stroke-width="3" marker-end="url(#arrow)"/>
  <text x="885" y="675" font-family="Arial" font-size="15" font-weight="700" fill="#166534">YES</text>

  <line x1="980" y1="739" x2="1050" y2="739" stroke="#0f172a" stroke-width="3" marker-end="url(#arrow)"/>
</svg>
